Coordinates
version=1
nRows=16
nColumns=40
inDegrees=yes

Units are S.I. units (second, meters, Newtons, ...)
Angles are in degrees.

endheader
time	pelvis_tilt	pelvis_list	pelvis_rotation	pelvis_tx	pelvis_ty	pelvis_tz	hip_flexion_r	hip_adduction_r	hip_rotation_r	knee_angle_r	knee_angle_r_beta	ankle_angle_r	subtalar_angle_r	mtp_angle_r	hip_flexion_l	hip_adduction_l	hip_rotation_l	knee_angle_l	knee_angle_l_beta	ankle_angle_l	subtalar_angle_l	mtp_angle_l	lumbar_extension	lumbar_bending	lumbar_rotation	arm_flex_r	arm_add_r	arm_rot_r	elbow_flex_r	pro_sup_r	wrist_flex_r	wrist_dev_r	arm_flex_l	arm_add_l	arm_rot_l	elbow_flex_l	pro_sup_l	wrist_flex_l	wrist_dev_l
     10.23000000	     -2.85071762	     -6.47980343	     -1.13999061	      1.09509559	      0.91412900	      0.48832390	     23.78655975	      2.37049088	    -15.11513020	     24.19104231	     24.19104231	      4.05988570	     -6.22779728	     -4.18597815	      3.94152726	    -15.46630420	     -8.08447088	     44.91557714	     44.91557714	      8.53131624	    -17.88878694	     -9.69554749	    -10.50853100	      7.96642047	      2.47779481	    -12.94192003	    -10.30628076	    -14.36467794	     23.45042093	     46.92337491	      0.00000000	      0.00000000	     18.22451123	    -15.92251406	     -8.01875384	     94.54579769	     48.27579236	      0.00000000	      0.00000000
     10.24114286	     -2.87942805	     -6.50459207	     -1.00593560	      1.09527520	      0.91600669	      0.49144878	     22.90870882	      2.52569270	    -15.63777871	     23.81826420	     23.81826420	      5.07496505	     -5.05738549	     -3.41914540	      6.19320664	    -15.85426411	     -6.66549564	     49.07221364	     49.07221364	      7.63315864	    -18.18665716	     -4.79915911	    -10.37309342	      7.74055675	      2.05333231	    -10.79480422	    -10.35624632	    -13.32227956	     22.54016937	     46.89374707	      0.00000000	      0.00000000	     16.85486977	    -15.18521324	     -9.03820380	     93.15374625	     48.32836716	      0.00000000	      0.00000000
     10.25228571	     -2.87841649	     -6.57961951	     -0.86783276	      1.09532676	      0.91778034	      0.49446200	     21.93244156	      2.80062138	    -16.01685111	     23.25249241	     23.25249241	      5.72401121	     -4.29428196	     -3.29968444	      8.45044527	    -16.23875871	     -5.30741144	     52.97599094	     52.97599094	      6.77900798	    -18.33216156	     -0.20077541	    -10.32950385	      7.59254220	      2.04839398	     -9.29632532	    -10.38193909	    -12.52614830	     22.97955238	     46.81704655	      0.00000000	      0.00000000	     15.77017203	    -14.60980872	     -8.86549155	     91.69487137	     48.30430778	      0.00000000	      0.00000000
     10.26342857	     -2.85990259	     -6.70887447	     -0.72388158	      1.09524959	      0.91949252	      0.49732184	     20.91406405	      3.17000302	    -16.30853215	     22.58003797	     22.58003797	      6.11798730	     -3.82429161	     -3.32881778	     10.53632979	    -16.72523049	     -4.21672207	     56.24238467	     56.24238467	      4.85814766	    -18.64091619	      0.61323599	    -10.37988309	      7.47971359	      2.20144640	     -7.77510995	    -10.37354981	    -12.41687123	     23.64319664	     46.79216792	      0.00000000	      0.00000000	     14.63094221	    -13.96047613	     -8.48916732	     90.60186807	     48.25457108	      0.00000000	      0.00000000
     10.27457143	     -2.86912147	     -6.63602661	     -0.55473766	      1.09506205	      0.92118709	      0.49964742	     19.89910046	      3.21203482	    -16.89177471	     21.89817981	     21.89817981	      6.57125332	     -2.64805683	     -3.53139241	     12.78443041	    -16.65439873	     -2.83971640	     59.45466255	     59.45466255	      4.85542352	    -18.66699049	      5.65349557	    -10.25951368	      7.27108757	      2.16609894	     -6.31596348	    -10.47579812	    -11.84553432	     24.63448819	     46.70922374	      0.00000000	      0.00000000	     13.98475745	    -13.28810650	     -8.66006577	     87.05042245	     48.20324500	      0.00000000	      0.00000000
     10.28571429	     -2.96173027	     -6.66378612	     -0.43510100	      1.09464193	      0.92257896	      0.50194124	     19.02605565	      3.43844975	    -17.18594796	     21.22920451	     21.22920451	      6.90108051	     -2.02322734	     -3.54872922	     15.09468637	    -16.69888056	     -1.65530097	     62.29227778	     62.29227778	      4.97035205	    -18.64427289	      9.70263968	    -10.17697104	      7.10975303	      2.74089793	     -5.25056456	    -10.66301221	    -10.95567527	     25.97794012	     46.57900181	      0.00000000	      0.00000000	     13.42568563	    -12.38627515	     -8.06144101	     84.56436315	     48.12781554	      0.00000000	      0.00000000
     10.29685714	     -2.99998563	     -6.71587001	     -0.27705233	      1.09416320	      0.92392677	      0.50408072	     18.08943236	      3.70770010	    -17.39712707	     20.52577253	     20.52577253	      7.19271377	     -1.57897752	     -3.52824956	     17.14442556	    -16.83113357	     -0.74912007	     64.44602961	     64.44602961	      4.24306089	    -18.76152936	      9.90278199	    -10.16380313	      6.97497323	      2.75875960	     -3.52988112	    -10.80157848	    -10.84579998	     26.88970567	     46.54524248	      0.00000000	      0.00000000	     12.20408391	    -11.90515954	     -7.69759385	     82.93136580	     48.06583680	      0.00000000	      0.00000000
     10.30800000	     -2.98840343	     -6.71309124	     -0.11329463	      1.09359040	      0.92531870	      0.50599198	     17.06230813	      3.88894818	    -17.73729610	     19.75036352	     19.75036352	      7.46500276	     -0.82473123	     -3.57252844	     19.10013697	    -16.84098866	      0.04857152	     66.21828360	     66.21828360	      4.13669527	    -18.78870227	     10.71155648	    -10.15445778	      6.82600071	      2.65165424	     -1.75616486	    -10.94429752	    -10.48458324	     28.10639075	     46.47750092	      0.00000000	      0.00000000	     11.46299444	    -11.50909094	     -7.61658285	     79.41537833	     47.99088365	      0.00000000	      0.00000000
     10.31914286	     -2.97138964	     -6.70812470	      0.07964983	      1.09285939	      0.92657692	      0.50763416	     16.14149618	      4.03409384	    -18.04028479	     19.16110316	     19.16110316	      7.72539344	     -0.26537169	     -3.66306386	     21.01983875	    -16.76978826	      0.77099392	     67.61049882	     67.61049882	      4.53928163	    -18.82118275	     11.81095644	    -10.17488878	      6.65499202	      3.25260995	     -0.51875347	    -11.34852046	     -9.75835046	     29.44136416	     46.37229244	      0.00000000	      0.00000000	     11.30465683	    -10.42336112	     -7.30061643	     75.34097846	     47.89408541	      0.00000000	      0.00000000
     10.33028571	     -2.89799857	     -6.53294941	      0.17688442	      1.09193611	      0.92773563	      0.50928114	     15.28402731	      4.03121471	    -17.90722596	     18.77944772	     18.77944772	      8.07916532	     -0.07445687	     -3.69169102	     22.71780909	    -16.58839656	      1.15227120	     68.48924955	     68.48924955	      4.70005014	    -18.83857177	     11.63117957	    -10.44993585	      6.24820291	      3.81001714	      1.23513973	    -11.59511718	     -9.70944664	     30.22651397	     46.35034320	      0.00000000	      0.00000000	     10.27869233	     -9.80102800	     -6.94288805	     74.37884628	     47.84486821	      0.00000000	      0.00000000
     10.34142857	     -2.98305229	     -6.70030532	      0.50807946	      1.09096277	      0.92878276	      0.51057155	     14.26891595	      4.38888381	    -18.45751587	     17.72737182	     17.72737182	      8.16306289	      0.67372640	     -3.74118007	     24.71439352	    -16.65374988	      1.80235681	     69.05030449	     69.05030449	      5.41587323	    -18.79910104	     12.62775663	    -10.19285608	      6.41984245	      3.93114629	      2.61598070	    -12.13761752	     -8.41099366	     32.40933058	     46.17390527	      0.00000000	      0.00000000	     10.82991830	     -9.13956731	     -6.46472247	     67.28965659	     47.68825804	      0.00000000	      0.00000000
     10.35257143	     -2.91334157	     -6.71033097	      0.76957523	      1.08988380	      0.92982251	      0.51181239	     13.26239301	      4.59173179	    -18.60806957	     17.00269176	     17.00269176	      8.37588770	      0.98311402	     -3.70880315	     26.34468287	    -16.61270999	      2.11796528	     69.08058318	     69.08058318	      5.90821362	    -18.80980541	     12.69529148	    -10.33260907	      6.32264420	      3.79727807	      4.56344108	    -12.43309170	     -7.96750878	     34.00406447	     46.09190827	      0.00000000	      0.00000000	      9.94993380	     -8.95449338	     -5.93085883	     64.32316162	     47.58919309	      0.00000000	      0.00000000
     10.36371429	     -2.93338389	     -6.78089108	      1.01269297	      1.08864604	      0.93055688	      0.51294120	     12.39995751	      4.83616942	    -18.83864360	     16.33500163	     16.33500163	      8.56194129	      1.36352360	     -3.79081011	     28.01706319	    -16.62485378	      2.34793292	     68.74894800	     68.74894800	      6.51461654	    -18.80696251	     13.04817678	    -10.32278776	      6.31730039	      4.31934168	      6.03510092	    -13.11478441	     -6.91025351	     35.66854850	     45.96634641	      0.00000000	      0.00000000	      9.98249885	     -8.28771744	     -5.30917545	     59.61775792	     47.45397907	      0.00000000	      0.00000000
     10.37485714	     -2.88870539	     -6.84850701	      1.29243283	      1.08737107	      0.93129177	      0.51392779	     11.45305518	      5.09806383	    -19.00172307	     15.62453432	     15.62453432	      8.76137067	      1.61551362	     -3.74464675	     29.48061027	    -16.61901344	      2.48179214	     67.94534121	     67.94534121	      6.97189962	    -18.84309322	     13.16445696	    -10.43273716	      6.29774432	      4.02755200	      8.21615333	    -13.35332079	     -6.66636174	     37.10565876	     45.90912401	      0.00000000	      0.00000000	      8.89347396	     -8.20293794	     -4.85338173	     57.03831506	     47.36307047	      0.00000000	      0.00000000
     10.38600000	     -2.87430284	     -6.94293919	      1.56164202	      1.08600543	      0.93184613	      0.51474139	     10.55116751	      5.38071799	    -19.16776728	     14.91713185	     14.91713185	      8.95313694	      1.91569453	     -3.72799219	     30.85782184	    -16.62833053	      2.51229966	     66.75066302	     66.75066302	      7.40832798	    -18.86210495	     13.41006905	    -10.51564438	      6.35618058	      3.82313313	     10.41403309	    -13.60415655	     -6.37451275	     38.43363911	     45.85474457	      0.00000000	      0.00000000	      7.93826466	     -8.06107918	     -4.39498746	     54.09358293	     47.26880430	      0.00000000	      0.00000000
     10.39714286	     -2.88414706	     -6.99321836	      1.78041145	      1.08458659	      0.93224609	      0.51541399	      9.73634209	      5.58203805	    -19.35043093	     14.32662192	     14.32662192	      9.13139290	      2.25939528	     -3.90422095	     32.10342162	    -16.57252562	      2.40873219	     65.18853774	     65.18853774	      7.93274019	    -18.89252683	     14.23819941	    -10.50983559	      6.38820837	      4.48644502	     11.97863085	    -14.50461198	     -5.15141319	     39.96042873	     45.73826165	      0.00000000	      0.00000000	      8.34718783	     -7.41447048	     -3.53286815	     48.60584961	     47.09612720	      0.00000000	      0.00000000
